#N canvas 0 50 1914 988 10;
#X obj 115 141 tgl 15 0 empty d empty 17 7 0 10 -260097 -1 -1 0 1;
#X obj 115 183 cyclone/counter 0 7;
#X obj 112 268 bng 15 250 50 0 empty empty empty 17 7 0 10 -262144
-1 -1;
#X obj 112 234 sel 0 1 2 3 4 5 6 7, f 86;
#X obj 209 271 bng 15 250 50 0 empty empty empty 17 7 0 10 -262144
-1 -1;
#X obj 364 275 bng 15 250 50 0 empty empty empty 17 7 0 10 -262144
-1 -1;
#X obj 424 282 bng 15 250 50 0 empty empty empty 17 7 0 10 -262144
-1 -1;
#X obj 497 282 bng 15 250 50 0 empty empty empty 17 7 0 10 -262144
-1 -1;
#X obj 558 284 bng 15 250 50 0 empty empty empty 17 7 0 10 -262144
-1 -1;
#X obj 621 281 bng 15 250 50 0 empty empty empty 17 7 0 10 -262144
-1 -1;
#X msg 209 291 \; hh 1 \;;
#X msg 424 304 \; snare 1 \;;
#X msg 632 385 \; clap 1 \;;
#N canvas 976 267 646 391 array_loading_subpatch 0;
#X obj 307 284 soundfiler;
#X obj 318 90 loadbang;
#X obj 45 78 array define kick;
#X obj 45 103 array define snare;
#X obj 45 128 array define hh;
#X obj 45 153 array define clap;
#X msg 304 190 read -resize 808kick.wav kick;
#X msg 314 210 read -resize 808snare.wav snare;
#X msg 335 235 read -resize 808hh.wav hh;
#X msg 345 257 read -resize 808clap.wav clap;
#X connect 1 0 6 0;
#X connect 1 0 7 0;
#X connect 1 0 8 0;
#X connect 1 0 9 0;
#X connect 6 0 0 0;
#X connect 7 0 0 0;
#X connect 8 0 0 0;
#X connect 9 0 0 0;
#X restore 467 139 pd array_loading_subpatch;
#X msg 497 382 \; hh 1 \;;
#X msg 555 384 \; kick 1 \;;
#X floatatom 51 377 5 0 0 0 - - -, f 5;
#X msg 274 394 \; hh 1 \;;
#X msg 135 292 \; kick 1 \;;
#X msg 325 395 \; kick 1 \;;
#X obj 51 400 send no;
#X obj 51 354 cyclone/counter 1 4;
#X obj 293 274 bng 15 250 50 0 empty empty empty 17 7 0 10 -262144
-1 -1;
#X obj 240 358 sel 1 2 3 4;
#X obj 326 354 sel 1 2 3 4;
#X obj 543 347 sel 1 2 3 4;
#X obj 631 347 sel 1 2 3 4;
#X obj 586 296 r no;
#X obj 292 320 int;
#X obj 364 320 int;
#X obj 330 295 r no;
#X obj 558 320 int;
#X obj 621 320 int;
#N canvas 12 50 1099 555 oscs 0;
#X obj 432 178 phasor~;
#X obj 640 179 phasor~;
#X obj 640 155 * 1.004;
#X obj 871 177 phasor~;
#X obj 871 156 * 1.495;
#X obj 444 42 inlet;
#X obj 418 495 outlet~;
#X obj 871 198 *~ 2;
#X obj 875 228 -~ 1;
#X obj 875 249 *~ 0.25;
#X obj 348 145 * 0.5095;
#X obj 349 234 *~ 0.75;
#X obj 349 201 osc~;
#X obj 34 171 phasor~;
#X obj 34 192 *~ 2;
#X obj 34 213 -~ 1;
#X obj 34 234 *~ 0.5;
#X obj 149 195 phasor~;
#X obj 149 217 expr~ if ($v1 < 0.45 \, 1 \, 0);
#X obj 432 207 expr~ if ($v1 < 0.65 \, 1 \, 0);
#X obj 640 207 expr~ if ($v1 < 0.125 \, 1 \, 0);
#X text 440 224 square wave;
#X text 601 227 square wave (slightly detuned);
#X text 931 178 sawtooth (5th above);
#X text 124 81 detuned octave down \; - sawtooth \; - sine \; - square
\;;
#X text 387 14 ADDITIVE SYNTHESIS FOR SYNTH 1;
#X text 748 53 from the ‘Summer-Moroder.pd’ patch;
#X text 755 31 Synth created by course organiser;
#X text 944 77 Week 3;
#X connect 0 0 19 0;
#X connect 1 0 20 0;
#X connect 2 0 1 0;
#X connect 3 0 7 0;
#X connect 4 0 3 0;
#X connect 5 0 0 0;
#X connect 5 0 2 0;
#X connect 5 0 4 0;
#X connect 5 0 10 0;
#X connect 7 0 8 0;
#X connect 8 0 9 0;
#X connect 9 0 6 0;
#X connect 10 0 12 0;
#X connect 10 0 13 0;
#X connect 10 0 17 0;
#X connect 11 0 6 0;
#X connect 12 0 11 0;
#X connect 13 0 14 0;
#X connect 14 0 15 0;
#X connect 15 0 16 0;
#X connect 16 0 6 0;
#X connect 17 0 18 0;
#X connect 18 0 11 0;
#X connect 19 0 6 0;
#X connect 20 0 6 0;
#X restore 818 275 pd oscs;
#X floatatom 818 251 5 0 0 0 - - -, f 5;
#X obj 818 327 *~;
#X obj 818 224 mtof;
#X obj 815 87 tgl 15 0 empty s empty 17 7 0 10 -4032 -1 -1 0 1;
#X obj 816 178 cyclone/zl lookup 60 60 60 63 60 65 60 67 60 65 60 63
60 65 60 67, f 66;
#X floatatom 815 161 5 0 0 0 - - -, f 5;
#X floatatom 817 201 5 0 0 0 - - -, f 5;
#X obj 1019 222 bng 15 250 50 0 empty empty empty 17 7 0 10 -262144
-1 -1;
#X obj 1019 242 cyclone/counter;
#X floatatom 1018 265 5 0 0 0 - - -, f 5;
#X obj 1018 285 s trig;
#X obj 110 70 int;
#X obj 110 97 select 65;
#X obj 110 120 bng 15 250 50 0 empty empty empty 17 7 0 10 -260097
-1 -1;
#X obj 110 39 r trig;
#X obj 815 137 cyclone/counter 0 15;
#X obj 815 115 metro 200;
#X obj 115 162 metro 200;
#X obj 815 65 bng 15 250 50 0 empty empty empty 17 7 0 10 -4032 -1
-1;
#X obj 908 84 r reset;
#X msg 908 106 0;
#X obj 1070 200 r reset;
#X msg 1070 221 0;
#X obj 193 117 r reset;
#X msg 193 139 0;
#N canvas 362 228 506 331 bass 0;
#X obj 195 104 inlet;
#X floatatom 195 126 5 0 0 0 - - -, f 5;
#X obj 126 157 * 0.5095;
#X obj 77 183 osc~;
#X obj 134 182 phasor~;
#X obj 76 208 *~ 0.8;
#X obj 134 204 *~ 0.4;
#X obj 251 143 *~;
#X floatatom 249 58 5 0 0 0 - mod_freq -, f 5;
#X obj 249 83 osc~;
#X obj 197 167 +~;
#X msg 385 142 \; mod_freq 30 \; mod_depth 20 \;;
#X obj 197 189 osc~;
#X obj 197 211 *~ 1;
#X obj 203 264 outlet~;
#X obj 385 110 loadbang;
#X floatatom 288 111 5 0 0 0 - mod_depth -, f 5;
#X obj 459 110 bng 15 250 50 0 empty bass_reset empty 17 7 0 10 -262144
-1 -1;
#X text 174 18 ADDITIVE SYNTHESIS FOR BASS;
#X connect 0 0 1 0;
#X connect 1 0 2 0;
#X connect 1 0 10 0;
#X connect 2 0 3 0;
#X connect 2 0 4 0;
#X connect 3 0 5 0;
#X connect 4 0 6 0;
#X connect 5 0 14 0;
#X connect 6 0 14 0;
#X connect 7 0 10 1;
#X connect 8 0 9 0;
#X connect 9 0 7 0;
#X connect 10 0 12 0;
#X connect 12 0 13 0;
#X connect 13 0 14 0;
#X connect 15 0 11 0;
#X connect 16 0 7 1;
#X connect 17 0 11 0;
#X restore 50 792 pd bass;
#X obj 819 359 *~;
#X obj 1623 375 vsl 15 128 0 1 0 0 empty svol2 empty 0 -9 0 10 -4032
-1 -1 6350 1;
#X obj 136 327 r reset;
#X obj 1560 377 vsl 15 128 0 1 0 0 empty dvol2 empty 0 -9 0 10 -260097
-1 -1 8890 1;
#X obj 1623 514 s svol;
#X obj 1560 514 s dvol;
#X obj 1777 356 loadbang;
#X obj 866 361 r svol;
#N canvas 1417 66 450 300 chord 0;
#X obj 182 62 inlet;
#X floatatom 183 93 5 0 0 0 - - -, f 5;
#X obj 322 126 * 1.495;
#X obj 181 234 outlet~;
#X obj 323 153 phasor~;
#X obj 134 151 * 1.495;
#X obj 53 139 osc~;
#X obj 135 174 osc~;
#X obj 261 152 phasor~;
#X obj 303 100 spigot;
#X obj 353 77 tgl 15 0 empty t4 empty 17 7 0 10 -262144 -1 -1 1 1;
#X obj 57 85 spigot;
#X obj 123 58 tgl 15 0 empty t1 empty 17 7 0 10 -262144 -1 -1 1 1;
#X obj 135 126 spigot;
#X obj 188 110 tgl 15 0 empty t2 empty 17 7 0 10 -262144 -1 -1 1 1
;
#X obj 222 123 spigot;
#X obj 275 107 tgl 15 0 empty t3 empty 17 7 0 10 -262144 -1 -1 1 1
;
#X obj 56 110 * 1;
#X obj 222 145 * 1;
#X obj 54 167 *~ 0.8;
#X obj 262 180 *~ 1;
#X obj 323 175 *~ 0.7;
#X obj 135 200 *~ 0.3;
#X text 130 16 ADDITIVE SYNTHESIS FOR CHORDS;
#X connect 0 0 1 0;
#X connect 1 0 9 0;
#X connect 1 0 15 0;
#X connect 1 0 13 0;
#X connect 1 0 11 0;
#X connect 2 0 4 0;
#X connect 4 0 21 0;
#X connect 5 0 7 0;
#X connect 6 0 19 0;
#X connect 7 0 22 0;
#X connect 8 0 20 0;
#X connect 9 0 2 0;
#X connect 10 0 9 1;
#X connect 11 0 17 0;
#X connect 12 0 11 1;
#X connect 13 0 5 0;
#X connect 14 0 13 1;
#X connect 15 0 18 0;
#X connect 16 0 15 1;
#X connect 17 0 6 0;
#X connect 18 0 8 0;
#X connect 19 0 3 0;
#X connect 20 0 3 0;
#X connect 21 0 3 0;
#X connect 22 0 3 0;
#X restore 381 746 pd chord;
#X floatatom 374 723 5 0 0 0 - - -, f 5;
#X obj 378 634 cyclone/counter 0 3;
#X obj 376 593 metro 3200;
#X obj 381 557 tgl 15 0 empty c empty 17 7 0 10 -4034 -1 -1 0 1;
#X obj 378 696 mtof;
#X obj 337 722 s li;
#X msg 623 576 \; t1 1 \; t2 1 \; t3 1 \; t4 1 \;;
#X msg 684 576 \; t1 0 \; t2 1 \; t3 0 \; t4 1 \;;
#X msg 744 577 \; t1 1 \; t2 0 \; t3 1 \; t4 0 \;;
#N canvas 523 342 431 280 low 0;
#X floatatom 19 171 5 0 0 0 - - -, f 5;
#X floatatom 272 169 5 0 0 0 - - -, f 5;
#X text 62 170 cutoff (20-20000);
#X obj 282 137 line;
#X obj 185 14 r li;
#X obj 64 53 bng 15 250 50 0 empty empty empty 17 7 0 10 -262144 -1
-1;
#X obj 34 140 line;
#X obj 145 69 delay 1600;
#X obj 272 42 bng 15 250 50 0 empty empty empty 17 7 0 10 -262144 -1
-1;
#X obj 19 190 outlet;
#X obj 272 188 outlet;
#X msg 302 84 0.25 \, 0.5 3200;
#X msg 22 90 525 \, 5000 1600;
#X msg 153 94 5000 \, 525 1600;
#X connect 0 0 9 0;
#X connect 1 0 10 0;
#X connect 3 0 1 0;
#X connect 4 0 5 0;
#X connect 4 0 8 0;
#X connect 5 0 7 0;
#X connect 5 0 12 0;
#X connect 6 0 0 0;
#X connect 7 0 13 0;
#X connect 8 0 11 0;
#X connect 11 0 3 0;
#X connect 12 0 6 0;
#X connect 13 0 6 0;
#X restore 446 750 pd low pass line;
#X obj 384 779 cyclone/svf~;
#X obj 380 485 int;
#X obj 380 507 sel 129;
#X obj 381 535 bng 15 250 50 0 empty empty empty 17 7 0 10 -4034 -1
-1;
#X obj 384 814 *~;
#N canvas 521 500 450 300 lp 0;
#X obj 35 27 bng 15 250 50 0 empty empty empty 17 7 0 10 -262144 -1
-1;
#X obj 44 115 line~;
#X obj 36 4 inlet;
#X obj 44 138 outlet~;
#X msg 17 65 1 100;
#X msg 74 89 0 700;
#X obj 73 62 del 2800;
#X connect 0 0 4 0;
#X connect 0 0 6 0;
#X connect 1 0 3 0;
#X connect 2 0 0 0;
#X connect 4 0 1 0;
#X connect 5 0 1 0;
#X connect 6 0 5 0;
#X restore 491 781 pd lp dur;
#X obj 380 459 r trig;
#X floatatom 50 720 5 0 0 0 - - -, f 5;
#X obj 50 742 mtof;
#X floatatom 50 767 5 0 0 0 - - -, f 5;
#X obj 76 847 *~;
#X obj 1494 378 vsl 15 128 0 1 0 0 empty bvol2 empty 0 -9 0 10 -257985
-1 -1 8890 1;
#X floatatom 50 663 5 0 0 0 - - -, f 5;
#X obj 50 582 tgl 15 0 empty b empty 17 7 0 10 -257985 -1 -1 0 1;
#X obj 51 554 bng 15 250 50 0 empty empty empty 17 7 0 10 -257985 -1
-1;
#X obj 51 507 int;
#X obj 51 476 r trig;
#X obj 378 666 cyclone/zl lookup 72 75 77 79;
#X obj 50 696 cyclone/zl lookup 48 51 53 55 58 60;
#X obj 50 641 random 6;
#N canvas 0 50 450 300 bduration 0;
#X obj 91 74 bng 15 250 50 0 empty empty empty 17 7 0 10 -262144 -1
-1;
#X obj 100 163 line~;
#X obj 92 51 inlet;
#X obj 100 185 outlet~;
#X msg 81 108 0.5 5;
#X msg 135 137 0 150;
#X obj 136 99 del 20;
#X connect 0 0 4 0;
#X connect 0 0 6 0;
#X connect 1 0 3 0;
#X connect 2 0 0 0;
#X connect 4 0 1 0;
#X connect 5 0 1 0;
#X connect 6 0 5 0;
#X restore 135 774 pd bduration;
#X obj 76 820 *~;
#X obj 50 607 metro 200;
#X obj 51 529 sel 193;
#X msg 1247 41 \; d 0 \; s 1 \; b 0 \; c 0 \;;
#X text 1245 19 PLAY;
#X obj 474 580 r reset;
#X msg 474 602 0;
#X obj 1494 514 s bvol;
#X obj 119 852 r bvol;
#X obj 525 531 loadbang;
#X obj 795 826 *~;
#N canvas 181 223 357 286 sduration 0;
#X obj 35 27 bng 15 250 50 0 empty empty empty 17 7 0 10 -262144 -1
-1;
#X obj 44 116 line~;
#X msg 79 90 0 300;
#X obj 80 52 del 10;
#X msg 25 61 0.25 5;
#X obj 36 4 inlet;
#X obj 44 138 outlet~;
#X connect 0 0 4 0;
#X connect 0 0 3 0;
#X connect 1 0 6 0;
#X connect 2 0 1 0;
#X connect 3 0 2 0;
#X connect 4 0 1 0;
#X connect 5 0 0 0;
#X restore 928 268 pd sduration;
#X obj 795 801 *~;
#N canvas 128 210 450 300 vodur 0;
#X obj 137 159 line~;
#X msg 110 109 1 100;
#X msg 167 133 0 700;
#X obj 123 38 inlet;
#X obj 122 63 bng 15 250 50 0 empty empty empty 17 7 0 10 -262144 -1
-1;
#X obj 137 181 outlet~;
#X obj 166 106 del 800;
#X connect 0 0 5 0;
#X connect 1 0 0 0;
#X connect 2 0 0 0;
#X connect 3 0 4 0;
#X connect 4 0 1 0;
#X connect 4 0 6 0;
#X connect 6 0 2 0;
#X restore 902 782 pd vodur;
#X obj 162 528 vsl 15 128 0 500 0 0 empty empty empty 0 -9 0 10 -257985
-1 -1 0 1;
#X floatatom 161 665 5 0 0 0 - - mod_depth, f 5;
#X text 1322 0 MASTER RESET;
#X obj 623 555 bng 15 250 50 0 empty empty empty 17 7 0 10 -262144
-1 -1;
#X obj 591 530 r reset;
#X msg 197 533 \; bass_reset 1 \;;
#X obj 341 157 bng 15 250 50 0 empty empty empty 17 7 0 10 -262144
-1 -1;
#X msg 340 184 \; hh 1 \;;
#X obj 339 35 tgl 15 0 empty trig1 empty 17 7 0 10 -262144 -1 -1 0
1;
#X obj 296 65 spigot;
#X obj 341 102 tgl 15 0 empty trig2 empty 17 7 0 10 -262144 -1 -1 0
1;
#X text 338 15 trig1;
#X text 345 86 trig2;
#X msg 259 140 \; trig1 0 \;;
#X obj 253 32 bng 15 250 50 0 empty empty empty 17 7 0 10 -262144 -1
-1;
#N canvas 577 295 330 226 double_hats 0;
#X obj 92 37 key;
#X floatatom 92 59 5 0 0 0 - - -, f 5;
#X msg 65 165 \; trig1 1 \;;
#X obj 92 78 sel 122;
#X obj 92 100 tgl 15 0 empty empty empty 17 7 0 10 -262144 -1 -1 0
1;
#X obj 92 120 sel 1;
#X msg 145 164 \; trig2 0 \;;
#X obj 158 68 loadbang;
#X msg 158 90 \; trig1 0 \; trig2 0 \;;
#X text 126 10 DOUBLE HATS;
#X connect 0 0 1 0;
#X connect 1 0 3 0;
#X connect 3 0 4 0;
#X connect 4 0 5 0;
#X connect 5 0 2 0;
#X connect 5 1 6 0;
#X connect 7 0 8 0;
#X restore 466 119 pd double_hats;
#N canvas 1440 50 362 314 chords 0;
#X obj 114 113 tgl 15 0 empty ctoggle empty 17 7 0 10 -262144 -1 -1
0 1;
#X obj 103 232 outlet~;
#X obj 114 133 sel 0;
#X obj 80 10 loadbang;
#X msg 79 39 \; ctoggle 1 \;;
#X msg 101 173 0 20;
#X obj 107 196 line~;
#X msg 167 177 1 20;
#X connect 0 0 2 0;
#X connect 2 0 5 0;
#X connect 2 1 7 0;
#X connect 3 0 4 0;
#X connect 5 0 6 0;
#X connect 6 0 1 0;
#X connect 7 0 6 0;
#X restore 490 823 pd chords mute;
#N canvas 1440 50 362 314 bass 0;
#X obj 114 113 tgl 15 0 empty btoggle empty 17 7 0 10 -262144 -1 -1
0 1;
#X msg 97 162 0 20;
#X obj 103 185 line~;
#X obj 103 232 outlet~;
#X obj 114 133 sel 0;
#X msg 163 166 1 20;
#X obj 80 10 loadbang;
#X msg 79 39 \; btoggle 1 \;;
#X connect 0 0 4 0;
#X connect 1 0 2 0;
#X connect 2 0 3 0;
#X connect 4 0 1 0;
#X connect 4 1 5 0;
#X connect 5 0 2 0;
#X connect 6 0 7 0;
#X restore 169 826 pd bass mute;
#N canvas 1440 50 362 314 voice 0;
#X obj 114 113 tgl 15 0 empty vtoggle empty 17 7 0 10 -262144 -1 -1
0 1;
#X msg 97 162 0 20;
#X obj 103 185 line~;
#X obj 103 232 outlet~;
#X obj 114 133 sel 0;
#X obj 80 10 loadbang;
#X msg 79 39 \; vtoggle 1 \;;
#X msg 163 166 1 20;
#X connect 0 0 4 0;
#X connect 1 0 2 0;
#X connect 2 0 3 0;
#X connect 4 0 1 0;
#X connect 4 1 7 0;
#X connect 5 0 6 0;
#X connect 7 0 2 0;
#X restore 890 806 pd voice mute;
#X obj 384 852 *~;
#X obj 433 851 r cvol;
#X obj 1424 377 vsl 15 128 0 0.2 0 0 empty cvol2 empty 0 -9 0 10 -4034
-1 -1 6350 1;
#X obj 1424 513 s cvol;
#X obj 1526 44 key;
#X floatatom 1526 70 5 0 0 0 - - -, f 5;
#X obj 1556 145 tgl 15 0 stoggle stoggler empty 17 7 0 10 -262144 -1
-1 1 1;
#X obj 1607 144 tgl 15 0 dtoggle dtoggler empty 17 7 0 10 -262144 -1
-1 1 1;
#X obj 1658 143 tgl 15 0 btoggle btoggler empty 17 7 0 10 -262144 -1
-1 0 1;
#X obj 1754 143 tgl 15 0 vtoggle vtoggler empty 17 7 0 10 -262144 -1
-1 0 1;
#X obj 1699 144 tgl 15 0 ctoggle ctoggler empty 17 7 0 10 -262144 -1
-1 0 1;
#X obj 1618 69 loadbang;
#X obj 819 381 *~;
#X obj 161 480 ctlin 23;
#X obj 76 869 *~;
#X text 1548 163 synth;
#X text 1597 163 drums;
#X text 1649 163 bass;
#X text 1690 162 chords;
#X text 1743 162 voice;
#X obj 384 874 *~;
#X obj 795 848 *~;
#X msg 1706 40 \; stoggler 1 \; dtoggler 1 \; ctoggler 1 \; btoggler
1 \; vtoggler 1 \;;
#X text 1710 20 PLAY ALL;
#N canvas 275 195 1280 781 synth2 0;
#N canvas 12 50 1099 555 oscs 0;
#X obj 432 178 phasor~;
#X obj 640 179 phasor~;
#X obj 640 155 * 1.004;
#X obj 871 177 phasor~;
#X obj 871 156 * 1.495;
#X obj 444 42 inlet;
#X obj 418 495 outlet~;
#X obj 871 198 *~ 2;
#X obj 875 228 -~ 1;
#X obj 875 249 *~ 0.25;
#X obj 348 145 * 0.5095;
#X obj 349 234 *~ 0.75;
#X obj 349 201 osc~;
#X obj 34 171 phasor~;
#X obj 34 192 *~ 2;
#X obj 34 213 -~ 1;
#X obj 34 234 *~ 0.5;
#X obj 149 195 phasor~;
#X obj 149 217 expr~ if ($v1 < 0.45 \, 1 \, 0);
#X obj 432 207 expr~ if ($v1 < 0.65 \, 1 \, 0);
#X obj 640 207 expr~ if ($v1 < 0.125 \, 1 \, 0);
#X text 715 42 An additive synthesis approach:;
#X text 440 224 square wave;
#X text 601 227 square wave (slightly detuned);
#X text 931 178 sawtooth (5th above);
#X text 114 47 detuned octave down \; - sawtooth \; - sine \; - square
\;;
#X obj 566 380 *~;
#X obj 626 346 line~;
#X msg 680 304 1 5, f 5;
#X obj 756 267 bng 15 250 50 0 empty empty empty 17 7 0 10 -262144
-1 -1;
#X msg 762 325 0 200;
#X obj 792 307 del 20;
#X connect 0 0 19 0;
#X connect 1 0 20 0;
#X connect 2 0 1 0;
#X connect 3 0 7 0;
#X connect 4 0 3 0;
#X connect 5 0 0 0;
#X connect 5 0 2 0;
#X connect 5 0 4 0;
#X connect 5 0 10 0;
#X connect 7 0 8 0;
#X connect 8 0 9 0;
#X connect 9 0 6 0;
#X connect 10 0 12 0;
#X connect 10 0 13 0;
#X connect 10 0 17 0;
#X connect 11 0 6 0;
#X connect 12 0 11 0;
#X connect 13 0 14 0;
#X connect 14 0 15 0;
#X connect 15 0 16 0;
#X connect 16 0 6 0;
#X connect 17 0 18 0;
#X connect 18 0 11 0;
#X connect 19 0 6 0;
#X connect 20 0 6 0;
#X connect 27 0 26 1;
#X connect 28 0 27 0;
#X connect 29 0 28 0;
#X connect 29 0 31 0;
#X connect 30 0 27 0;
#X connect 31 0 30 0;
#X restore 206 301 pd oscs;
#X floatatom 206 277 5 0 0 0 - - -, f 5;
#X obj 206 353 *~;
#X obj 206 250 mtof;
#X obj 203 116 tgl 15 0 empty trig4 empty 17 7 0 10 -262144 -1 -1 0
1;
#X floatatom 203 187 5 0 0 0 - - -, f 5;
#X floatatom 205 227 5 0 0 0 - - -, f 5;
#X obj 203 163 cyclone/counter 0 15;
#X obj 203 141 metro 200;
#X obj 296 110 r reset;
#X msg 296 132 0;
#N canvas 309 50 362 321 switch 0;
#X obj 114 113 tgl 15 0 empty stoggle empty 17 7 0 10 -262144 -1 -1
1 1;
#X msg 97 162 0 20;
#X obj 103 185 line~;
#X obj 103 232 outlet~;
#X obj 114 133 sel 0;
#X msg 163 166 1 20;
#X msg 79 39 \; stoggle 1 \;;
#X obj 80 10 loadbang;
#X connect 0 0 4 0;
#X connect 1 0 2 0;
#X connect 2 0 3 0;
#X connect 4 0 1 0;
#X connect 4 1 5 0;
#X connect 5 0 2 0;
#X connect 7 0 6 0;
#X restore 325 356 pd switch on and off;
#X obj 207 385 *~;
#N canvas 181 223 357 286 sduration 0;
#X obj 35 27 bng 15 250 50 0 empty empty empty 17 7 0 10 -262144 -1
-1;
#X obj 44 116 line~;
#X msg 79 90 0 300;
#X obj 80 52 del 10;
#X msg 25 61 0.25 5;
#X obj 36 4 inlet;
#X obj 44 138 outlet~;
#X connect 0 0 4 0;
#X connect 0 0 3 0;
#X connect 1 0 6 0;
#X connect 2 0 1 0;
#X connect 3 0 2 0;
#X connect 4 0 1 0;
#X connect 5 0 0 0;
#X restore 316 294 pd sduration;
#X msg 124 158 \; trig3 0 \;;
#X text 221 115 trig4;
#X obj 156 85 spigot;
#X obj 213 65 tgl 15 0 empty trig3 empty 17 7 0 10 -262144 -1 -1 1
1;
#X obj 156 61 bng 15 250 50 0 empty empty empty 17 7 0 10 -262144 -1
-1;
#X obj 156 31 inlet;
#X obj 549 64 loadbang;
#X msg 549 86 \; trig3 0 \; trig4 0 \;;
#X obj 680 90 tgl 15 0 empty empty empty 17 7 0 10 -262144 -1 -1 1
1;
#X obj 680 110 sel 1;
#X msg 653 155 \; trig3 1 \;;
#X msg 734 154 \; trig4 0 \;;
#X obj 679 40 key;
#X obj 680 65 sel 119;
#N canvas 12 50 1099 555 oscs 0;
#X obj 432 178 phasor~;
#X obj 640 179 phasor~;
#X obj 640 155 * 1.004;
#X obj 871 177 phasor~;
#X obj 871 156 * 1.495;
#X obj 444 42 inlet;
#X obj 418 495 outlet~;
#X obj 871 198 *~ 2;
#X obj 875 228 -~ 1;
#X obj 875 249 *~ 0.25;
#X obj 348 145 * 0.5095;
#X obj 349 234 *~ 0.75;
#X obj 349 201 osc~;
#X obj 34 171 phasor~;
#X obj 34 192 *~ 2;
#X obj 34 213 -~ 1;
#X obj 34 234 *~ 0.5;
#X obj 149 195 phasor~;
#X obj 149 217 expr~ if ($v1 < 0.45 \, 1 \, 0);
#X obj 432 207 expr~ if ($v1 < 0.65 \, 1 \, 0);
#X obj 640 207 expr~ if ($v1 < 0.125 \, 1 \, 0);
#X text 715 42 An additive synthesis approach:;
#X text 440 224 square wave;
#X text 601 227 square wave (slightly detuned);
#X text 931 178 sawtooth (5th above);
#X text 114 47 detuned octave down \; - sawtooth \; - sine \; - square
\;;
#X obj 566 380 *~;
#X obj 626 346 line~;
#X msg 680 304 1 5, f 5;
#X obj 756 267 bng 15 250 50 0 empty empty empty 17 7 0 10 -262144
-1 -1;
#X msg 762 325 0 200;
#X obj 792 307 del 20;
#X connect 0 0 19 0;
#X connect 1 0 20 0;
#X connect 2 0 1 0;
#X connect 3 0 7 0;
#X connect 4 0 3 0;
#X connect 5 0 0 0;
#X connect 5 0 2 0;
#X connect 5 0 4 0;
#X connect 5 0 10 0;
#X connect 7 0 8 0;
#X connect 8 0 9 0;
#X connect 9 0 6 0;
#X connect 10 0 12 0;
#X connect 10 0 13 0;
#X connect 10 0 17 0;
#X connect 11 0 6 0;
#X connect 12 0 11 0;
#X connect 13 0 14 0;
#X connect 14 0 15 0;
#X connect 15 0 16 0;
#X connect 16 0 6 0;
#X connect 17 0 18 0;
#X connect 18 0 11 0;
#X connect 19 0 6 0;
#X connect 20 0 6 0;
#X connect 27 0 26 1;
#X connect 28 0 27 0;
#X connect 29 0 28 0;
#X connect 29 0 31 0;
#X connect 30 0 27 0;
#X connect 31 0 30 0;
#X restore 702 315 pd oscs;
#X floatatom 702 291 5 0 0 0 - - -, f 5;
#X obj 702 367 *~;
#X obj 702 264 mtof;
#X floatatom 699 201 5 0 0 0 - - -, f 5;
#X floatatom 701 241 5 0 0 0 - - -, f 5;
#N canvas 309 50 362 321 switch 0;
#X obj 114 113 tgl 15 0 empty stoggle empty 17 7 0 10 -262144 -1 -1
1 1;
#X msg 97 162 0 20;
#X obj 103 185 line~;
#X obj 103 232 outlet~;
#X obj 114 133 sel 0;
#X msg 163 166 1 20;
#X msg 79 39 \; stoggle 1 \;;
#X obj 80 10 loadbang;
#X connect 0 0 4 0;
#X connect 1 0 2 0;
#X connect 2 0 3 0;
#X connect 4 0 1 0;
#X connect 4 1 5 0;
#X connect 5 0 2 0;
#X connect 7 0 6 0;
#X restore 775 365 pd switch on and off;
#X obj 703 399 *~;
#N canvas 181 223 357 286 sduration 0;
#X obj 35 27 bng 15 250 50 0 empty empty empty 17 7 0 10 -262144 -1
-1;
#X obj 44 116 line~;
#X msg 79 90 0 300;
#X obj 80 52 del 10;
#X msg 25 61 0.25 5;
#X obj 36 4 inlet;
#X obj 44 138 outlet~;
#X connect 0 0 4 0;
#X connect 0 0 3 0;
#X connect 1 0 6 0;
#X connect 2 0 1 0;
#X connect 3 0 2 0;
#X connect 4 0 1 0;
#X connect 5 0 0 0;
#X restore 791 298 pd sduration;
#X obj 206 205 cyclone/zl lookup 72 0 72 0 72 0 72 0 72 0 72 0 72 0
72 0, f 66;
#X obj 700 218 cyclone/zl lookup 0 72 0 70 0 67 0 65 0 63 0 65 0 67
0 70, f 66;
#X obj 207 408 *~ 0.5;
#X obj 703 422 *~ 0.5;
#X obj 207 430 send~ s2l;
#X obj 703 444 send~ s2r;
#X obj 543 307 line;
#X msg 544 283 0.5 \, 0 12800;
#X obj 544 259 r sy2fade;
#X obj 307 389 r sy2vol;
#X obj 761 402 r sy2vol;
#X text 545 11 SECONDARY SYNTH;
#X connect 0 0 2 0;
#X connect 1 0 0 0;
#X connect 2 0 12 0;
#X connect 3 0 1 0;
#X connect 3 0 13 0;
#X connect 4 0 8 0;
#X connect 4 0 14 0;
#X connect 5 0 37 0;
#X connect 6 0 3 0;
#X connect 7 0 5 0;
#X connect 7 0 32 0;
#X connect 8 0 7 0;
#X connect 9 0 10 0;
#X connect 10 0 7 2;
#X connect 11 0 12 1;
#X connect 12 0 39 0;
#X connect 13 0 2 1;
#X connect 16 0 4 0;
#X connect 17 0 16 1;
#X connect 18 0 16 0;
#X connect 19 0 18 0;
#X connect 20 0 21 0;
#X connect 22 0 23 0;
#X connect 23 0 24 0;
#X connect 23 1 25 0;
#X connect 26 0 27 0;
#X connect 27 0 22 0;
#X connect 28 0 30 0;
#X connect 29 0 28 0;
#X connect 30 0 35 0;
#X connect 31 0 29 0;
#X connect 31 0 36 0;
#X connect 32 0 38 0;
#X connect 33 0 31 0;
#X connect 34 0 35 1;
#X connect 35 0 40 0;
#X connect 36 0 30 1;
#X connect 37 0 6 0;
#X connect 38 0 33 0;
#X connect 39 0 41 0;
#X connect 40 0 42 0;
#X connect 43 0 39 1;
#X connect 43 0 40 1;
#X connect 44 0 43 0;
#X connect 45 0 44 0;
#X connect 46 0 39 1;
#X connect 47 0 40 1;
#X restore 1006 138 pd synth2;
#X obj 161 504 cyclone/scale 0 127 0 500;
#X obj 1250 755 receive~ s2l;
#X obj 1588 755 receive~ s2r;
#X obj 341 130 metro 100;
#X obj 1488 725 cyclone/svf~;
#X floatatom 1542 705 5 0 0 0 - - -, f 5;
#X obj 1201 375 vsl 15 128 0 10000 0 0 empty mcutoff2 empty 0 -9 0
10 -258113 -1 -1 12700 1;
#X obj 1312 780 cyclone/svf~;
#X obj 1622 777 cyclone/svf~;
#X obj 1129 654 loadbang;
#X obj 661 482 key;
#X floatatom 661 504 5 0 0 0 - - -, f 5;
#X obj 684 555 bng 15 250 50 0 empty empty empty 17 7 0 10 -262144
-1 -1;
#X obj 744 555 bng 15 250 50 0 empty empty empty 17 7 0 10 -262144
-1 -1;
#N canvas 335 50 916 569 keyboard 0;
#X floatatom 126 241 5 0 0 0 - - -, f 5;
#X obj 22 294 osc~;
#X obj 89 294 osc~;
#X obj 135 294 osc~;
#X obj 189 294 osc~;
#X obj 260 295 osc~;
#X obj 89 272 * 2;
#X obj 135 272 * 3;
#X obj 189 272 * 4;
#X obj 260 273 * 5;
#X obj 280 420 outlet~;
#X floatatom 126 200 5 0 0 0 - - -, f 5;
#X obj 126 220 mtof;
#X obj 342 283 osc~;
#X obj 409 283 osc~;
#X obj 455 283 osc~;
#X obj 509 283 osc~;
#X obj 580 284 osc~;
#X obj 342 260 * 1.5;
#X obj 409 261 * 3;
#X obj 455 261 * 4.5;
#X obj 509 261 * 6;
#X obj 580 262 * 7.5;
#X obj 342 305 *~;
#X obj 455 305 *~;
#X obj 510 306 *~;
#X obj 580 306 *~;
#X obj 409 305 *~;
#X obj 503 189 cyclone/scale~ -1 1 0.25 0.75;
#X obj 206 229 s vdur;
#X obj 126 144 notein;
#X obj 22 316 *~ 12;
#X obj 136 318 *~ 0.5;
#X obj 190 317 *~ 0.25;
#X obj 260 317 *~ 0.125;
#X obj 503 148 osc~;
#X floatatom 503 129 5 0 0 0 - - -, f 5;
#X obj 126 166 stripnote;
#X obj 503 107 inlet;
#X obj 89 316 *~ 1;
#X connect 0 0 1 0;
#X connect 0 0 6 0;
#X connect 0 0 7 0;
#X connect 0 0 8 0;
#X connect 0 0 9 0;
#X connect 0 0 18 0;
#X connect 0 0 19 0;
#X connect 0 0 20 0;
#X connect 0 0 21 0;
#X connect 0 0 22 0;
#X connect 1 0 31 0;
#X connect 2 0 39 0;
#X connect 3 0 32 0;
#X connect 4 0 33 0;
#X connect 5 0 34 0;
#X connect 6 0 2 0;
#X connect 7 0 3 0;
#X connect 8 0 4 0;
#X connect 9 0 5 0;
#X connect 11 0 12 0;
#X connect 12 0 0 0;
#X connect 12 0 29 0;
#X connect 13 0 23 0;
#X connect 14 0 27 0;
#X connect 15 0 24 0;
#X connect 16 0 25 0;
#X connect 17 0 26 0;
#X connect 18 0 13 0;
#X connect 19 0 14 0;
#X connect 20 0 15 0;
#X connect 21 0 16 0;
#X connect 22 0 17 0;
#X connect 23 0 10 0;
#X connect 24 0 10 0;
#X connect 25 0 10 0;
#X connect 26 0 10 0;
#X connect 27 0 10 0;
#X connect 28 0 23 1;
#X connect 28 0 27 1;
#X connect 28 0 24 1;
#X connect 28 0 25 1;
#X connect 28 0 26 1;
#X connect 30 0 37 0;
#X connect 30 1 37 1;
#X connect 31 0 10 0;
#X connect 32 0 10 0;
#X connect 33 0 10 0;
#X connect 34 0 10 0;
#X connect 35 0 28 0;
#X connect 36 0 35 0;
#X connect 37 0 11 0;
#X connect 38 0 36 0;
#X connect 39 0 10 0;
#X restore 795 769 pd keyboard;
#X obj 902 758 r vdur;
#X obj 76 891 send~ bo;
#X obj 384 896 send~ co;
#X obj 819 403 send~ so;
#X obj 795 870 send~ vo;
#X obj 1269 593 receive~ do;
#X obj 1355 594 receive~ so;
#X obj 1440 594 receive~ bo;
#X obj 1526 596 receive~ vo;
#X obj 1612 596 receive~ co;
#X obj 1777 477 bng 15 250 50 0 sy2fade empty empty 17 7 0 10 -262144
-1 -1;
#X text 1802 20 MUTE ALL;
#X msg 1796 41 \; stoggler 0 \; dtoggler 0 \; ctoggler 0 \; btoggler
0 \; vtoggler 0 \;;
#X obj 1301 15 bng 15 250 50 0 empty empty empty 17 7 0 10 -262144
-1 -1;
#X obj 1415 58 bng 15 250 50 0 empty empty empty 17 7 0 10 -262144
-1 -1;
#X text 1793 477 FADE OUT;
#X obj 1488 787 *~;
#X obj 1488 870 dac~;
#X obj 1622 799 *~;
#X obj 1312 802 *~;
#X obj 1312 377 vsl 15 128 0 1 0 0 empty mvolume2 empty 0 -9 0 10 -258113
-1 -1 12700 1;
#N canvas 187 101 638 222 drums_out 0;
#X obj 4 35 cyclone/play~ kick;
#X obj 146 35 cyclone/play~ snare;
#X obj 297 36 cyclone/play~ hh;
#X obj 433 39 cyclone/play~ clap;
#X obj 4 12 r kick;
#X obj 297 12 r hh;
#X obj 146 11 r snare;
#X obj 433 15 r clap;
#X obj 175 125 *~;
#X obj 231 131 r dvol;
#N canvas 890 152 450 300 drums 0;
#X obj 114 113 tgl 15 0 empty dtoggle empty 17 7 0 10 -262144 -1 -1
1 1;
#X msg 97 162 0 20;
#X obj 103 185 line~;
#X obj 103 232 outlet~;
#X obj 114 133 sel 0;
#X msg 163 166 1 20;
#X obj 80 10 loadbang;
#X msg 79 39 \; dtoggle 1 \;;
#X connect 0 0 4 0;
#X connect 1 0 2 0;
#X connect 2 0 3 0;
#X connect 4 0 1 0;
#X connect 4 1 5 0;
#X connect 5 0 2 0;
#X connect 6 0 7 0;
#X restore 307 113 pd drums mute;
#X obj 175 147 *~;
#X obj 175 169 outlet~;
#X connect 0 0 8 0;
#X connect 1 0 8 0;
#X connect 2 0 8 0;
#X connect 3 0 8 0;
#X connect 4 0 0 0;
#X connect 5 0 2 0;
#X connect 6 0 1 0;
#X connect 7 0 3 0;
#X connect 8 0 11 0;
#X connect 9 0 11 1;
#X connect 10 0 8 1;
#X connect 11 0 12 0;
#X restore 466 167 pd drums_out;
#X obj 466 193 send~ do;
#X obj 1313 355 / 127;
#X obj 1201 329 ctlin 22;
#X obj 841 832 r vvol;
#X obj 1697 376 vsl 15 128 0 0.1 0 0 empty vvol2 empty 0 -9 0 10 -191407
-1 -1 3810 1;
#X obj 1424 328 ctlin 20;
#X obj 1494 328 ctlin 21;
#X obj 1697 328 ctlin 25;
#X obj 1697 512 s vvol;
#X obj 1560 328 ctlin 71;
#X obj 1623 328 ctlin 72;
#X obj 661 523 sel 33 64 35;
#X text 763 524 change 33 \, 64 and 35 depending on keyboard;
#X obj 1313 330 ctlin 63;
#X text 708 500 Press shift+1/shift+2/shift+3 to change chord tone
;
#X text 108 16 DRUMS;
#X text 50 440 BASS;
#X text 378 438 CHORDS;
#X text 813 41 PRIMARY SYNTH;
#X text 792 736 VOICE;
#X obj 1623 350 / 127;
#X obj 1494 353 / 127;
#X obj 1560 350 / 127;
#X obj 1697 351 / 1270;
#X obj 1424 353 / 635;
#N canvas 16 50 1636 920 fade 0;
#X obj 40 105 line;
#X msg 40 80 0.1 \, 0 12800;
#X obj 168 101 line;
#X msg 168 79 0.7 \, 0 12800;
#X obj 291 101 line;
#X msg 291 79 0.7 \, 0 12800;
#X obj 419 101 line;
#X msg 419 79 0.5 \, 0 12800;
#X obj 221 8 inlet;
#X obj 221 31 bng 15 250 50 0 empty empty empty 17 7 0 10 -262144 -1
-1;
#X obj 527 100 line;
#X msg 527 78 0.03 \, 0 12800;
#X obj 40 127 s cvol2;
#X obj 168 123 s bvol2;
#X obj 291 123 s dvol2;
#X obj 419 123 s svol2;
#X obj 527 122 s vvol2;
#X connect 0 0 12 0;
#X connect 1 0 0 0;
#X connect 2 0 13 0;
#X connect 3 0 2 0;
#X connect 4 0 14 0;
#X connect 5 0 4 0;
#X connect 6 0 15 0;
#X connect 7 0 6 0;
#X connect 8 0 9 0;
#X connect 9 0 1 0;
#X connect 9 0 3 0;
#X connect 9 0 5 0;
#X connect 9 0 7 0;
#X connect 9 0 11 0;
#X connect 10 0 16 0;
#X connect 11 0 10 0;
#X restore 1777 502 pd fade;
#X text 1427 299 CHORDS;
#X text 1495 299 BASS;
#X text 1561 300 DRUMS;
#X text 1625 300 SYNTH;
#X text 1697 300 VOICE;
#X text 1553 40 MUTE/PLAY;
#X obj 1201 351 * 79;
#X obj 1201 512 s lop;
#X obj 1542 683 r lop;
#X obj 1352 754 r lop;
#X obj 1688 754 r lop;
#X obj 1312 513 s mvolume;
#X obj 1498 753 r mvolume;
#X text 1199 301 MASTER FILTER;
#X text 1312 301 MASTER VOLUME;
#X text 1512 271 CONTROL INSTRUMENT VOLUME;
#X obj 1657 871 writesf~ 2;
#X msg 1723 812 start;
#X msg 1723 840 stop;
#X text 1145 19 START HERE->;
#X obj 703 711 ctlin 24;
#X obj 703 758 vsl 15 128 0 10 0 0 empty empty empty 0 -9 0 10 -191407
-1 -1 0 1;
#X obj 703 733 / 12.7;
#X text 161 458 Control Bass Freq. Mod Depth;
#X text 701 690 Control Voice Amp. Mod;
#X text 462 100 Press z to Switch Double Hats on and off;
#X obj 1526 91 sel 113 101 114 116 121;
#N canvas 1024 50 362 314 synth 0;
#X obj 114 113 tgl 15 0 empty stoggle empty 17 7 0 10 -262144 -1 -1
1 1;
#X msg 97 162 0 20;
#X obj 103 185 line~;
#X obj 103 232 outlet~;
#X obj 114 133 sel 0;
#X msg 163 166 1 20;
#X msg 79 39 \; stoggle 1 \;;
#X obj 80 10 loadbang;
#X connect 0 0 4 0;
#X connect 1 0 2 0;
#X connect 2 0 3 0;
#X connect 4 0 1 0;
#X connect 4 1 5 0;
#X connect 5 0 2 0;
#X connect 7 0 6 0;
#X restore 937 330 pd synth mute;
#X msg 1301 38 \; d 0 \; s 0 \; b 0 \; c 0 \; reset 1 \; bass_reset
1 \; trig1 0 \; trig2 0 \; trig3 0 \; trig4 0 \; mvolume2 1 \; mcutoff2
10033 \;;
#X msg 1415 79 \; cvol2 0.1 \; svol2 0.5 \; dvol2 0.7 \; bvol2 0.7
\; vvol2 0.03 \; sy2vol 0.5 \;;
#X msg 1777 378 \; svol2 0.5 \; dvol2 0.7 \; bvol2 0.7 \; cvol2 0.1
\; vvol2 0.03 \;;
#X msg 1129 678 \; mcutoff2 10033 \; mvolume2 1 \;;
#X text 1488 181 toggle -> q;
#X text 1610 181 e;
#X text 1660 181 r;
#X text 1703 181 t;
#X text 1755 180 y;
#X obj 1415 36 del 3500;
#X text 1444 890 Single dac~ Out;
#X text 1666 889 Recording;
#X msg 1723 784 open main.wav;
#X text 1775 323 RESET INSTRUMENT VOLUME;
#X text 457 65 ‘percussive example.pd’ patch from week 7;
#X text 462 46 Created by course organiser;
#X connect 0 0 51 0;
#X connect 1 0 3 0;
#X connect 1 0 128 0;
#X connect 2 0 18 0;
#X connect 2 0 21 0;
#X connect 3 0 2 0;
#X connect 3 1 4 0;
#X connect 3 2 22 0;
#X connect 3 3 5 0;
#X connect 3 4 6 0;
#X connect 3 5 7 0;
#X connect 3 6 8 0;
#X connect 3 7 9 0;
#X connect 4 0 10 0;
#X connect 5 0 29 0;
#X connect 6 0 11 0;
#X connect 7 0 14 0;
#X connect 8 0 31 0;
#X connect 9 0 32 0;
#X connect 16 0 20 0;
#X connect 21 0 16 0;
#X connect 22 0 28 0;
#X connect 23 0 17 0;
#X connect 23 1 19 0;
#X connect 23 2 17 0;
#X connect 23 3 19 0;
#X connect 24 0 19 0;
#X connect 24 1 17 0;
#X connect 24 2 19 0;
#X connect 24 3 17 0;
#X connect 25 0 15 0;
#X connect 25 1 15 0;
#X connect 25 2 15 0;
#X connect 25 3 12 0;
#X connect 26 0 14 0;
#X connect 26 1 12 0;
#X connect 26 2 14 0;
#X connect 26 3 12 0;
#X connect 27 0 31 1;
#X connect 27 0 32 1;
#X connect 28 0 23 0;
#X connect 29 0 24 0;
#X connect 30 0 28 1;
#X connect 30 0 29 1;
#X connect 31 0 25 0;
#X connect 32 0 26 0;
#X connect 33 0 35 0;
#X connect 34 0 33 0;
#X connect 35 0 60 0;
#X connect 36 0 34 0;
#X connect 36 0 111 0;
#X connect 37 0 50 0;
#X connect 38 0 40 0;
#X connect 38 0 157 0;
#X connect 39 0 38 0;
#X connect 40 0 36 0;
#X connect 40 0 41 0;
#X connect 41 0 42 0;
#X connect 42 0 43 0;
#X connect 43 0 44 0;
#X connect 45 0 46 0;
#X connect 46 0 47 0;
#X connect 47 0 0 0;
#X connect 48 0 45 0;
#X connect 49 0 39 0;
#X connect 50 0 49 0;
#X connect 51 0 1 0;
#X connect 52 0 37 0;
#X connect 53 0 54 0;
#X connect 54 0 49 2;
#X connect 55 0 56 0;
#X connect 56 0 42 2;
#X connect 57 0 58 0;
#X connect 58 0 1 2;
#X connect 59 0 100 0;
#X connect 60 0 145 0;
#X connect 61 0 64 0;
#X connect 62 0 21 2;
#X connect 63 0 65 0;
#X connect 66 0 251 0;
#X connect 67 0 145 1;
#X connect 68 0 79 0;
#X connect 69 0 68 0;
#X connect 70 0 96 0;
#X connect 71 0 70 0;
#X connect 72 0 71 0;
#X connect 73 0 69 0;
#X connect 73 0 74 0;
#X connect 73 0 84 0;
#X connect 78 0 79 1;
#X connect 78 1 79 2;
#X connect 79 0 83 0;
#X connect 80 0 81 0;
#X connect 81 0 82 0;
#X connect 82 0 72 0;
#X connect 83 0 133 0;
#X connect 84 0 83 1;
#X connect 85 0 80 0;
#X connect 86 0 87 0;
#X connect 87 0 88 0;
#X connect 87 0 99 0;
#X connect 88 0 59 0;
#X connect 89 0 147 0;
#X connect 90 0 107 0;
#X connect 91 0 97 0;
#X connect 92 0 101 0;
#X connect 93 0 92 0;
#X connect 94 0 102 0;
#X connect 95 0 94 0;
#X connect 96 0 73 0;
#X connect 97 0 86 0;
#X connect 98 0 91 0;
#X connect 99 0 100 1;
#X connect 100 0 89 0;
#X connect 101 0 98 0;
#X connect 102 0 93 0;
#X connect 105 0 106 0;
#X connect 106 0 70 2;
#X connect 108 0 147 1;
#X connect 109 0 75 0;
#X connect 110 0 154 0;
#X connect 111 0 35 1;
#X connect 112 0 110 0;
#X connect 113 0 112 1;
#X connect 114 0 115 0;
#X connect 117 0 75 0;
#X connect 118 0 117 0;
#X connect 120 0 121 0;
#X connect 122 0 123 1;
#X connect 123 0 124 0;
#X connect 124 0 127 0;
#X connect 124 0 161 0;
#X connect 128 0 123 0;
#X connect 130 0 133 1;
#X connect 131 0 89 1;
#X connect 132 0 110 1;
#X connect 133 0 153 0;
#X connect 134 0 153 1;
#X connect 135 0 136 0;
#X connect 137 0 138 0;
#X connect 138 0 247 0;
#X connect 144 0 139 0;
#X connect 144 0 140 0;
#X connect 144 0 141 0;
#X connect 144 0 143 0;
#X connect 144 0 142 0;
#X connect 145 0 176 0;
#X connect 146 0 158 0;
#X connect 147 0 174 0;
#X connect 153 0 175 0;
#X connect 154 0 177 0;
#X connect 158 0 114 0;
#X connect 159 0 165 0;
#X connect 160 0 166 0;
#X connect 161 0 120 0;
#X connect 162 0 189 0;
#X connect 163 0 162 1;
#X connect 164 0 228 0;
#X connect 165 0 192 0;
#X connect 166 0 191 0;
#X connect 167 0 252 0;
#X connect 168 0 169 0;
#X connect 169 0 206 0;
#X connect 170 0 76 0;
#X connect 171 0 77 0;
#X connect 172 0 112 0;
#X connect 173 0 113 0;
#X connect 178 0 162 0;
#X connect 179 0 162 0;
#X connect 180 0 162 0;
#X connect 181 0 162 0;
#X connect 182 0 162 0;
#X connect 183 0 220 0;
#X connect 186 0 249 0;
#X connect 186 0 258 0;
#X connect 187 0 250 0;
#X connect 189 0 190 0;
#X connect 189 0 190 1;
#X connect 189 0 237 1;
#X connect 189 0 237 0;
#X connect 191 0 190 1;
#X connect 191 0 237 1;
#X connect 192 0 190 0;
#X connect 192 0 237 0;
#X connect 193 0 232 0;
#X connect 194 0 195 0;
#X connect 196 0 193 0;
#X connect 197 0 227 0;
#X connect 198 0 154 1;
#X connect 199 0 203 0;
#X connect 200 0 219 0;
#X connect 201 0 216 0;
#X connect 202 0 218 0;
#X connect 204 0 217 0;
#X connect 205 0 215 0;
#X connect 206 0 117 0;
#X connect 206 1 170 0;
#X connect 206 2 171 0;
#X connect 208 0 196 0;
#X connect 215 0 61 0;
#X connect 216 0 90 0;
#X connect 217 0 63 0;
#X connect 218 0 199 0;
#X connect 219 0 135 0;
#X connect 227 0 164 0;
#X connect 229 0 163 0;
#X connect 230 0 165 1;
#X connect 231 0 166 1;
#X connect 233 0 189 1;
#X connect 233 0 192 1;
#X connect 233 0 191 1;
#X connect 238 0 237 0;
#X connect 239 0 237 0;
#X connect 241 0 243 0;
#X connect 242 0 172 0;
#X connect 243 0 242 0;
#X connect 247 0 139 0;
#X connect 247 1 140 0;
#X connect 247 2 141 0;
#X connect 247 3 143 0;
#X connect 247 4 142 0;
#X connect 248 0 60 1;
#X connect 258 0 187 0;
#X connect 261 0 237 0;
